<svg id="Layer_1" height="512" viewBox="0 0 128 128" width="512" xmlns="http://www.w3.org/2000/svg" xmlns:xlink="http://www.w3.org/1999/xlink" data-name="Layer 1"><linearGradient id="linear-gradient" gradientUnits="userSpaceOnUse" x1="116.834" x2="11.166" y1="118.948" y2="13.281"><stop offset="0" stop-color="#e43c53"/><stop offset="1" stop-color="#fbbe2c"/></linearGradient><path d="m58.421 62.688a1.751 1.751 0 0 1 0-2.476l.4-.4a1.751 1.751 0 1 1 2.479 2.473l-.4.4a1.752 1.752 0 0 1 -2.476 0zm45.827 36.612a1.75 1.75 0 1 0 2.611-2.33l-.563-.632a1.75 1.75 0 1 0 -2.611 2.33zm12.586 19.644a1.749 1.749 0 0 1 -2.475 0l-2.638-2.638-.385.385a5.528 5.528 0 0 1 -7.585.216l-13.523-12.067a5.4 5.4 0 0 1 -2.035.387 8.667 8.667 0 0 1 -5.65-2.405l-32.473-29.312-7.77 7.768a1.749 1.749 0 0 1 -2.475 0l-7.035-7.037a1.749 1.749 0 0 1 0-2.475l30.546-30.544-12.793-12.793a2.451 2.451 0 0 0 -3.462 0l-20.768 20.771a2.45 2.45 0 0 0 0 3.461l8.642 8.639a1.75 1.75 0 1 1 -2.475 2.475l-8.642-8.641a5.938 5.938 0 0 1 -.323-8.054l-4.584-4.584a4 4 0 0 1 -.352-5.241l-6.28-6.28a1.749 1.749 0 0 1 0-2.475l5.8-5.8-1.638-1.65a1.75 1.75 0 0 1 2.475-2.475l1.644 1.644 4.567-4.567-2.137-2.137a5.048 5.048 0 0 0 -7.129 0l-2.24 2.24a1.75 1.75 0 0 1 -2.475-2.475l2.24-2.24a8.55 8.55 0 0 1 12.078 0l3.374 3.375 6.28 6.28a4 4 0 0 1 5.242.351l1.537 1.537a1.751 1.751 0 0 1 -2.477 2.475l-1.54-1.537a.51.51 0 0 0 -.722 0l-7.414 7.414a1.75 1.75 0 0 1 -2.475-2.475l5.33-5.33-5-5-11.607 11.606 5 5 1.615-1.615a1.75 1.75 0 0 1 2.473 2.479l-3.7 3.7a.512.512 0 0 0 0 .723l4.567 4.567 18.639-18.636a5.955 5.955 0 0 1 8.411 0l12.793 12.793 3.842-3.842a1.749 1.749 0 0 1 2.475 0l7.037 7.037a1.749 1.749 0 0 1 0 2.475l-7.764 7.769 29.312 32.471c2.77 3.067 3.2 7.035 1.01 9.229l-8.728 8.729 13.088 11.685a2.028 2.028 0 0 0 2.78-.079l1.62-1.619 1.619-1.619a2.027 2.027 0 0 0 .078-2.78l-4.316-4.837a1.75 1.75 0 1 1 2.611-2.33l4.316 4.837a5.53 5.53 0 0 1 -.214 7.585l-.385.385 2.637 2.637a1.749 1.749 0 0 1 .006 2.468zm-60.189-52.007-4.1 4.1 22.91 20.681 14.145-14.145-9.168-10.154-11.619 11.618a1.75 1.75 0 0 1 -2.475-2.475l11.746-11.744-9.167-10.154-2.793 2.793a1.75 1.75 0 1 1 -2.475-2.475l11.8-11.8-4.559-4.565-3.841 3.841-30.549 30.542 4.563 4.563 13.105-13.1a1.75 1.75 0 1 1 2.475 2.475zm32.655 34.419 9.946-9.946c.707-.708.416-2.692-1.133-4.408l-6.163-6.827-13.89 13.886 6.828 6.163c1.717 1.55 3.702 1.839 4.412 1.132z" fill="url(#linear-gradient)"/></svg>